<svg xmlns="http://www.w3.org/2000/svg" xmlns:xlink="http://www.w3.org/1999/xlink" version="1.1" width="256" height="256" viewBox="0 0 256 256" xml:space="preserve">
<desc>Created with Fabric.js 1.7.22</desc>
<defs>
</defs>
<g transform="translate(128 128) scale(0.72 0.72)" style="">
	<g style="stroke: none; stroke-width: 0; stroke-dasharray: none; stroke-linecap: butt; stroke-linejoin: miter; stroke-miterlimit: 10; fill: none; fill-rule: nonzero; opacity: 1;" transform="translate(-175.05 -175.05000000000004) scale(3.89 3.89)" >
	<path d="M 86.065 39.295 L 56.229 9.457 c -12.087 -12.088 -31.756 -12.087 -43.843 0 C 6.553 15.29 3.341 23.075 3.341 31.379 c 0 6.757 2.127 13.17 6.061 18.466 c 0.036 0.315 0.152 0.624 0.394 0.866 l 33.603 33.602 c 3.919 3.919 9.15 6.078 14.73 6.078 s 10.811 -2.159 14.73 -6.078 s 6.078 -9.151 6.078 -14.73 s -2.159 -10.811 -6.078 -14.73 c -0.066 -0.066 -0.15 -0.099 -0.225 -0.149 c -0.051 -0.075 -0.083 -0.158 -0.149 -0.225 L 43.354 25.347 c -2.057 -2.057 -4.802 -3.19 -7.729 -3.19 c -2.927 0 -5.672 1.133 -7.729 3.19 c -2.057 2.057 -3.19 4.802 -3.19 7.729 s 1.133 5.672 3.19 7.729 l 29.132 29.132 c 0.283 0.283 0.655 0.425 1.026 0.425 s 0.743 -0.142 1.026 -0.425 c 0.566 -0.567 0.566 -1.485 0 -2.052 L 29.948 38.753 c -1.509 -1.509 -2.34 -3.525 -2.34 -5.677 s 0.832 -4.168 2.34 -5.677 c 1.509 -1.509 3.525 -2.34 5.677 -2.34 s 4.168 0.832 5.677 2.34 l 29.132 29.132 c 0.066 0.066 0.15 0.099 0.225 0.149 c 0.051 0.075 0.083 0.158 0.149 0.225 c 6.99 6.99 6.99 18.366 0 25.356 c -3.371 3.371 -7.874 5.228 -12.678 5.228 s -9.307 -1.856 -12.678 -5.228 L 14.439 51.249 c 0 0 -0.001 -0.001 -0.001 -0.001 c -5.284 -5.284 -8.194 -12.34 -8.194 -19.869 c 0 -7.529 2.91 -14.585 8.194 -19.869 c 10.957 -10.956 28.783 -10.955 39.738 0 l 29.837 29.837 c 0.566 0.567 1.486 0.566 2.052 0 C 86.632 40.78 86.633 39.861 86.065 39.295 z" style="stroke: none; stroke-width: 1; stroke-dasharray: none; stroke-linecap: butt; stroke-linejoin: miter; stroke-miterlimit: 10; fill: rgb(0,0,0); fill-rule: nonzero; opacity: 1;" transform=" matrix(1 0 0 1 0 0) " stroke-linecap="round" />
</g>
</g>
</svg>